<svg width="213" height="38" viewBox="0 0 213 38" fill="none" xmlns="http://www.w3.org/2000/svg">
<path d="M29.1992 35.791L16.9922 36.377L16.8945 25.0977H11.2793L10.9375 35.791H0L0.927734 1.46484L12.5488 2.00195L11.8164 19.5312H17.2363L17.2852 0.683594L28.418 0.976562L29.1992 35.791ZM60.6201 1.41602C59.8877 7.14518 59.2611 12.8499 58.7402 18.5303C58.2194 24.1943 57.723 29.8991 57.251 35.6445L47.2412 36.377L47.6807 32.6172C47.3551 32.9915 46.9727 33.3171 46.5332 33.5938C46.11 33.8704 45.6543 34.0983 45.166 34.2773C44.6777 34.4401 44.1732 34.5622 43.6523 34.6436C43.1315 34.7087 42.6351 34.7331 42.1631 34.7168C41.0563 34.7005 40.0146 34.4889 39.0381 34.082C38.0615 33.6589 37.1663 33.1055 36.3525 32.4219C35.5387 31.722 34.8063 30.9163 34.1553 30.0049C33.5042 29.0771 32.9508 28.1087 32.4951 27.0996C32.0557 26.0742 31.7139 25.0326 31.4697 23.9746C31.2419 22.9167 31.1279 21.8913 31.1279 20.8984C31.1279 19.4336 31.1523 17.9199 31.2012 16.3574C31.2663 14.7786 31.3721 13.1999 31.5186 11.6211C31.665 10.0423 31.8522 8.47982 32.0801 6.93359C32.3242 5.38737 32.6253 3.90625 32.9834 2.49023C34.9691 2.58789 36.9629 2.67741 38.9648 2.75879C40.9668 2.84017 42.9606 2.86458 44.9463 2.83203C44.5719 4.24805 44.1976 5.6722 43.8232 7.10449C43.4652 8.52051 43.1396 9.9528 42.8467 11.4014C42.5537 12.8337 42.3177 14.2741 42.1387 15.7227C41.9596 17.1712 41.8701 18.6361 41.8701 20.1172C41.8701 20.459 41.8864 20.9473 41.9189 21.582C41.9515 22.2168 42.0329 22.8434 42.1631 23.4619C42.3096 24.0804 42.5212 24.6257 42.7979 25.0977C43.0908 25.5534 43.4977 25.7812 44.0186 25.7812C44.637 25.7812 45.1904 25.5208 45.6787 25C46.167 24.4629 46.5983 23.7467 46.9727 22.8516C47.347 21.9564 47.6644 20.9229 47.9248 19.751C48.2015 18.5791 48.4294 17.3584 48.6084 16.0889C48.8037 14.8031 48.9583 13.5091 49.0723 12.207C49.1862 10.9049 49.2676 9.68424 49.3164 8.54492C49.3815 7.38932 49.4222 6.35579 49.4385 5.44434C49.471 4.53288 49.4873 3.82487 49.4873 3.32031C49.4873 2.99479 49.4792 2.67741 49.4629 2.36816C49.4466 2.05892 49.4222 1.74154 49.3896 1.41602C50.4476 1.44857 51.4974 1.47298 52.5391 1.48926C53.5807 1.50553 54.6305 1.51367 55.6885 1.51367C56.5023 1.51367 57.3161 1.51367 58.1299 1.51367C58.96 1.4974 59.79 1.46484 60.6201 1.41602ZM92.3828 23.4375C92.3828 25.2767 92.3584 27.0996 92.3096 28.9062C92.277 30.6966 92.2201 32.5033 92.1387 34.3262L78.0762 34.082C78.5645 31.2012 78.9876 28.3285 79.3457 25.4639C79.7038 22.583 79.8828 19.6777 79.8828 16.748C79.8828 16.5365 79.8747 16.1947 79.8584 15.7227C79.8421 15.2507 79.8096 14.7217 79.7607 14.1357C79.7119 13.5335 79.6387 12.9232 79.541 12.3047C79.4596 11.6699 79.3376 11.0921 79.1748 10.5713C79.0283 10.0505 78.8411 9.62728 78.6133 9.30176C78.4017 8.95996 78.1413 8.78906 77.832 8.78906C77.2786 8.78906 76.8066 8.95182 76.416 9.27734C76.0417 9.60286 75.7243 10.026 75.4639 10.5469C75.2197 11.0514 75.0244 11.6211 74.8779 12.2559C74.7314 12.8906 74.6175 13.5254 74.5361 14.1602C74.471 14.7949 74.4222 15.3971 74.3896 15.9668C74.3734 16.5202 74.3652 16.9759 74.3652 17.334C74.2839 20.2148 74.2188 23.0794 74.1699 25.9277C74.1211 28.7598 74.056 31.6243 73.9746 34.5215L61.5234 35.0586C61.849 29.3132 62.1582 23.6003 62.4512 17.9199C62.7604 12.2396 63.0046 6.52669 63.1836 0.78125L74.707 0.195312L74.6094 4.10156C75.0651 3.54818 75.5534 3.02734 76.0742 2.53906C76.6113 2.05078 77.181 1.63574 77.7832 1.29395C78.3854 0.935872 79.0202 0.65918 79.6875 0.463867C80.3711 0.252279 81.0872 0.146484 81.8359 0.146484C83.2194 0.146484 84.432 0.374349 85.4736 0.830078C86.5153 1.28581 87.4105 1.9043 88.1592 2.68555C88.9079 3.4668 89.5345 4.39453 90.0391 5.46875C90.5436 6.52669 90.9505 7.65788 91.2598 8.8623C91.569 10.0667 91.805 11.3281 91.9678 12.6465C92.1305 13.9486 92.2363 15.2344 92.2852 16.5039C92.3503 17.7734 92.3828 19.0023 92.3828 20.1904C92.3828 21.3786 92.3828 22.4609 92.3828 23.4375ZM124.219 30.3223C123.454 31.2826 122.51 32.1208 121.387 32.8369C120.264 33.5531 119.059 34.1471 117.773 34.6191C116.488 35.0911 115.169 35.4492 113.818 35.6934C112.467 35.9212 111.182 36.0352 109.961 36.0352C107.601 36.0352 105.428 35.6364 103.442 34.8389C101.457 34.0413 99.7396 32.9346 98.291 31.5186C96.8587 30.0863 95.7357 28.3854 94.9219 26.416C94.1081 24.4466 93.7012 22.2982 93.7012 19.9707C93.7012 18.1966 93.9046 16.4714 94.3115 14.7949C94.7184 13.1185 95.2962 11.5479 96.0449 10.083C96.8099 8.61816 97.7376 7.27539 98.8281 6.05469C99.9186 4.83398 101.156 3.78418 102.539 2.90527C103.923 2.02637 105.436 1.35091 107.08 0.878906C108.74 0.390625 110.498 0.146484 112.354 0.146484C113.053 0.146484 113.802 0.179036 114.6 0.244141C115.397 0.292969 116.187 0.390625 116.968 0.537109C117.765 0.667318 118.538 0.854492 119.287 1.09863C120.036 1.34277 120.719 1.64388 121.338 2.00195L120.654 11.3281C119.743 10.9863 118.799 10.7585 117.822 10.6445C116.862 10.5143 115.918 10.4492 114.99 10.4492C113.688 10.4492 112.467 10.6283 111.328 10.9863C110.205 11.3281 109.22 11.8408 108.374 12.5244C107.544 13.208 106.885 14.0625 106.396 15.0879C105.908 16.1133 105.664 17.3014 105.664 18.6523C105.664 19.4987 105.778 20.3206 106.006 21.1182C106.234 21.8994 106.576 22.5993 107.031 23.2178C107.503 23.82 108.081 24.3083 108.765 24.6826C109.465 25.057 110.27 25.2441 111.182 25.2441C111.8 25.2441 112.435 25.1628 113.086 25C113.753 24.8372 114.323 24.5605 114.795 24.1699L114.893 22.2656L109.033 22.168L109.326 14.8438C111.751 14.7624 114.176 14.6973 116.602 14.6484C119.027 14.5833 121.468 14.502 123.926 14.4043L124.219 30.3223ZM154.712 12.2559C154.712 13.5254 154.598 14.681 154.37 15.7227C154.159 16.748 153.817 17.6921 153.345 18.5547C152.873 19.4173 152.262 20.2148 151.514 20.9473C150.765 21.6797 149.862 22.3796 148.804 23.0469L154.614 33.3984L143.628 35.5469L139.868 25.1465L136.841 25.2441L136.401 35.4004H125.903C125.985 31.6895 126.058 27.9948 126.123 24.3164C126.204 20.638 126.294 16.9434 126.392 13.2324C126.424 11.3607 126.457 9.50521 126.489 7.66602C126.522 5.82682 126.587 3.97135 126.685 2.09961C127.824 1.67643 128.947 1.3265 130.054 1.0498C131.16 0.773112 132.267 0.561523 133.374 0.415039C134.497 0.252279 135.628 0.146484 136.768 0.0976562C137.923 0.0325521 139.103 0 140.308 0C142.163 0 143.953 0.260417 145.679 0.78125C147.42 1.28581 148.958 2.05078 150.293 3.07617C151.628 4.10156 152.694 5.37923 153.491 6.90918C154.305 8.43913 154.712 10.2214 154.712 12.2559ZM143.774 13.0371C143.774 12.3535 143.677 11.7269 143.481 11.1572C143.302 10.5876 143.026 10.0993 142.651 9.69238C142.293 9.26921 141.838 8.94368 141.284 8.71582C140.747 8.47168 140.112 8.34961 139.38 8.34961C139.054 8.34961 138.737 8.37402 138.428 8.42285C138.118 8.4554 137.817 8.51237 137.524 8.59375L137.134 17.6758H137.72C138.42 17.6758 139.128 17.5863 139.844 17.4072C140.576 17.2282 141.227 16.9515 141.797 16.5771C142.383 16.2028 142.855 15.7227 143.213 15.1367C143.587 14.5508 143.774 13.8509 143.774 13.0371ZM185.986 2.73438L174.512 21.4844L174.854 35.3027H162.305L162.598 21.582L153.662 3.4668L166.113 1.9043L170.02 12.4512L174.268 1.9043L185.986 2.73438ZM201.685 26.2695H193.433C193.319 24.5443 193.416 23.1038 193.726 21.9482C194.035 20.7764 194.45 19.8079 194.971 19.043C195.508 18.2617 196.102 17.6351 196.753 17.1631C197.42 16.6748 198.063 16.2598 198.682 15.918C199.316 15.5599 199.87 15.2181 200.342 14.8926C200.83 14.5671 201.164 14.1602 201.343 13.6719C201.457 13.3789 201.489 13.0452 201.44 12.6709C201.392 12.2803 201.221 11.9141 200.928 11.5723C200.651 11.2305 200.228 10.9456 199.658 10.7178C199.105 10.4736 198.381 10.3516 197.485 10.3516C196.899 10.3516 196.2 10.4085 195.386 10.5225C194.588 10.6201 193.75 10.7829 192.871 11.0107C191.992 11.2223 191.121 11.4909 190.259 11.8164C189.412 12.1257 188.647 12.4837 187.964 12.8906L186.89 3.32031C187.492 2.96224 188.167 2.59603 188.916 2.22168C189.681 1.83105 190.519 1.48926 191.431 1.19629C192.342 0.887044 193.335 0.634766 194.409 0.439453C195.483 0.244141 196.639 0.146484 197.876 0.146484C199.878 0.146484 201.766 0.423177 203.54 0.976562C205.33 1.52995 206.893 2.34375 208.228 3.41797C209.562 4.49219 210.62 5.81868 211.401 7.39746C212.183 8.95996 212.573 10.7585 212.573 12.793C212.573 14.3392 212.354 15.5843 211.914 16.5283C211.475 17.4561 210.913 18.221 210.229 18.8232C209.546 19.4255 208.781 19.93 207.935 20.3369C207.088 20.7438 206.258 21.1914 205.444 21.6797C204.647 22.1517 203.906 22.7376 203.223 23.4375C202.555 24.1374 202.043 25.0814 201.685 26.2695ZM202.905 32.7148C202.905 33.431 202.767 34.0983 202.49 34.7168C202.214 35.3353 201.839 35.8724 201.367 36.3281C200.911 36.8001 200.374 37.1663 199.756 37.4268C199.137 37.7035 198.478 37.8418 197.778 37.8418C197.062 37.8418 196.395 37.7035 195.776 37.4268C195.158 37.1663 194.613 36.8001 194.141 36.3281C193.685 35.8724 193.319 35.3353 193.042 34.7168C192.782 34.0983 192.651 33.431 192.651 32.7148C192.651 32.015 192.782 31.3477 193.042 30.7129C193.319 30.0781 193.685 29.5329 194.141 29.0771C194.613 28.6051 195.158 28.2308 195.776 27.9541C196.395 27.6774 197.062 27.5391 197.778 27.5391C198.478 27.5391 199.137 27.6774 199.756 27.9541C200.374 28.2308 200.911 28.6051 201.367 29.0771C201.839 29.5329 202.214 30.0781 202.49 30.7129C202.767 31.3477 202.905 32.015 202.905 32.7148Z" fill="#08431D"/>
</svg>
